<svg width="72" height="78" viewBox="0 0 72 78" fill="none" xmlns="http://www.w3.org/2000/svg">
<g clip-path="url(#clip0_49_9)">
<path d="M2.24255 75.5871C2.24255 75.1439 2.29027 74.75 2.43341 74.4545C2.57655 74.1591 2.7674 73.9129 3.00597 73.7159C3.24454 73.5189 3.53082 73.3712 3.91253 73.322C4.24653 73.2235 4.67595 73.1743 5.10538 73.1743C5.39166 73.1743 5.67794 73.1743 5.96422 73.2235C6.25051 73.2727 6.48908 73.322 6.72764 73.3712C6.96621 73.4205 7.25249 73.5189 7.49106 73.5682L6.96621 74.947C6.87078 74.8485 6.72764 74.7992 6.5845 74.7008C6.44136 74.6023 6.29822 74.553 6.10737 74.5038C5.96422 74.4546 5.77337 74.4053 5.63023 74.3561C5.48709 74.3068 5.34395 74.3068 5.2008 74.3068C5.10538 74.3068 5.00995 74.3068 4.91452 74.3561C4.81909 74.4053 4.72367 74.4545 4.62824 74.553C4.53281 74.6515 4.4851 74.7992 4.43739 74.947C4.34196 75.0947 4.29424 75.3409 4.29424 75.5871C4.29424 75.8333 4.34196 76.0303 4.38967 76.2273C4.43738 76.4242 4.4851 76.5227 4.58053 76.6212C4.67595 76.7197 4.77138 76.7689 4.86681 76.8182C4.96224 76.8674 5.05766 76.8674 5.15309 76.8674C5.29623 76.8674 5.43937 76.8674 5.58251 76.8182C5.72566 76.7689 5.8688 76.7197 6.05965 76.6704C6.20279 76.6212 6.34593 76.5227 6.53679 76.4735C6.67993 76.375 6.82307 76.3258 6.9185 76.2273L7.49106 77.6553C7.25249 77.7538 7.01393 77.803 6.72764 77.8523C6.48908 77.9015 6.25051 77.9507 5.96422 78C5.67794 78.0492 5.39166 78.0492 5.10538 78.0492C4.67595 78.0492 4.29424 78 3.91253 77.9015C3.57854 77.803 3.24454 77.7045 3.00597 77.5076C2.7674 77.3106 2.57655 77.0644 2.43341 76.7689C2.29027 76.375 2.24255 76.0303 2.24255 75.5871Z" fill="white"/>
<path d="M8.44536 75.6364C8.44536 75.3902 8.44536 75.1439 8.44536 74.947C8.44536 74.7008 8.39764 74.5038 8.39764 74.2576C8.39764 74.0606 8.34993 73.8636 8.30221 73.6667C8.2545 73.4697 8.20679 73.3712 8.20679 73.2727H11.3559C11.7376 73.2727 12.0716 73.322 12.3102 73.4205C12.5964 73.5189 12.7873 73.6174 12.9782 73.7652C13.169 73.9129 13.2644 74.0606 13.3599 74.2576C13.4553 74.4546 13.503 74.6515 13.503 74.8485C13.503 74.9962 13.503 75.1439 13.4553 75.2917C13.4076 75.4394 13.3599 75.5871 13.2644 75.6856C13.169 75.8333 13.0736 75.9318 12.9304 76.0303C12.7873 76.1288 12.6919 76.2273 12.501 76.2765C12.6919 76.572 12.9304 76.8674 13.169 77.1136C13.4076 77.4091 13.6462 77.6061 13.8847 77.8523H11.165C11.165 77.6061 11.0696 77.3106 10.9742 77.0644C10.831 76.8182 10.6879 76.572 10.5448 76.3258C10.5448 76.4735 10.5448 76.6212 10.5448 76.7689C10.5448 76.9167 10.5448 77.0644 10.5925 77.1629C10.6402 77.2614 10.6402 77.4091 10.6402 77.5568C10.6402 77.6553 10.6879 77.7538 10.7356 77.8523H8.20679C8.2545 77.7538 8.30221 77.6061 8.34993 77.4583C8.39764 77.3106 8.39764 77.1136 8.44536 76.9167C8.44536 76.7197 8.49307 76.5227 8.49307 76.2765C8.44535 76.0795 8.44536 75.8826 8.44536 75.6364ZM10.497 74.4053C10.497 74.553 10.497 74.7008 10.497 74.8485C10.497 74.9962 10.497 75.1439 10.497 75.3409H11.1173C11.2128 75.3409 11.3082 75.2917 11.4036 75.1932C11.499 75.0947 11.499 74.9962 11.499 74.8485C11.499 74.7008 11.4513 74.6023 11.4036 74.5038C11.3082 74.4053 11.2605 74.3561 11.1173 74.3561H10.497V74.4053Z" fill="white"/>
<path d="M20.0875 75.5871C20.0875 76.375 19.8489 77.0152 19.3718 77.4091C18.8946 77.803 18.1789 78 17.2246 78C16.2704 78 15.5547 77.803 15.0775 77.4091C14.6004 77.0152 14.3618 76.375 14.3618 75.5871C14.3618 74.7993 14.6004 74.1591 15.0775 73.7652C15.5547 73.3712 16.2704 73.1743 17.2246 73.1743C18.1789 73.1743 18.8946 73.3712 19.3718 73.7652C19.8489 74.1591 20.0875 74.75 20.0875 75.5871ZM16.4612 75.5871C16.4612 75.7349 16.4612 75.9318 16.5089 76.0796C16.5089 76.2273 16.5566 76.375 16.6044 76.4735C16.6521 76.572 16.7475 76.6705 16.8429 76.7197C16.9384 76.769 17.0815 76.8182 17.2246 76.8182C17.3678 76.8182 17.5109 76.769 17.6063 76.7197C17.7018 76.6705 17.7972 76.572 17.8449 76.4735C17.8926 76.375 17.9403 76.2273 17.9403 76.0796C17.9403 75.9318 17.9881 75.7841 17.9881 75.5871C17.9881 75.4394 17.9881 75.2424 17.9403 75.0947C17.9403 74.947 17.8926 74.7993 17.8449 74.7008C17.7972 74.6023 17.7018 74.5038 17.6063 74.4546C17.5109 74.4053 17.3678 74.3561 17.2246 74.3561C17.0338 74.3561 16.9384 74.4053 16.8429 74.4546C16.7475 74.5038 16.6521 74.6023 16.6044 74.7008C16.5566 74.7993 16.5089 74.947 16.5089 75.0947C16.4612 75.2424 16.4612 75.3902 16.4612 75.5871Z" fill="white"/>
<path d="M20.5646 75.5871C20.5646 75.1439 20.6123 74.75 20.7554 74.4546C20.8986 74.1591 21.0894 73.9129 21.328 73.7159C21.5666 73.5189 21.8528 73.3712 22.2346 73.322C22.5686 73.2235 22.998 73.1743 23.4274 73.1743C23.7137 73.1743 24 73.1743 24.2862 73.2235C24.5725 73.2727 24.8111 73.322 25.0497 73.3712C25.2882 73.4205 25.5745 73.5189 25.8131 73.5682L25.2882 74.947C25.1928 74.8485 25.0497 74.7992 24.9065 74.7008C24.7634 74.6023 24.6202 74.553 24.4294 74.5038C24.2862 74.4546 24.0954 74.4053 23.9523 74.3561C23.8091 74.3068 23.666 74.3068 23.5228 74.3068C23.4274 74.3068 23.332 74.3068 23.2365 74.3561C23.1411 74.4053 23.0457 74.4545 22.9503 74.553C22.8548 74.6515 22.8071 74.7992 22.7594 74.947C22.7117 75.0947 22.664 75.3409 22.664 75.5871C22.664 75.8333 22.7117 76.0303 22.7594 76.2273C22.8071 76.4242 22.8548 76.5227 22.9503 76.6212C23.0457 76.7197 23.1411 76.7689 23.2365 76.8182C23.332 76.8674 23.4274 76.8674 23.5228 76.8674C23.666 76.8674 23.8091 76.8674 23.9523 76.8182C24.0954 76.7689 24.2385 76.7197 24.4294 76.6705C24.5725 76.6212 24.7157 76.5227 24.9065 76.4735C25.0497 76.375 25.1928 76.3258 25.2882 76.2273L25.8608 77.6553C25.6222 77.7538 25.3837 77.803 25.0974 77.8523C24.8588 77.9015 24.6202 77.9508 24.334 78C24.0477 78.0492 23.7614 78.0492 23.4751 78.0492C23.0457 78.0492 22.664 78 22.2823 77.9015C21.9483 77.803 21.6143 77.7045 21.3757 77.5076C21.1371 77.3106 20.9463 77.0644 20.8031 76.7689C20.6123 76.375 20.5646 76.0303 20.5646 75.5871Z" fill="white"/>
<path d="M28.0556 77.2121C28.0556 77.2614 28.0556 77.3599 28.0079 77.4583C27.9602 77.5568 27.9602 77.6061 27.8648 77.7046C27.8171 77.7538 27.7217 77.8523 27.6262 77.9015C27.5308 77.9508 27.4354 77.9508 27.2922 77.9508C27.1491 77.9508 27.0537 77.9508 26.9582 77.9015C26.8628 77.8523 26.8151 77.803 26.7197 77.7046C26.672 77.6553 26.6242 77.5568 26.5765 77.4583C26.5288 77.3599 26.5288 77.3106 26.5288 77.2121C26.5288 77.1629 26.5288 77.0644 26.5765 76.9659C26.6242 76.8674 26.6242 76.8182 26.7197 76.7197C26.7674 76.6705 26.8628 76.572 26.9582 76.5227C27.0537 76.4735 27.1491 76.4735 27.2922 76.4735C27.4354 76.4735 27.5308 76.4735 27.6262 76.5227C27.7217 76.572 27.7694 76.6212 27.8648 76.7197C27.9125 76.769 27.9602 76.8674 28.0079 76.9659C28.0556 77.0644 28.0556 77.1629 28.0556 77.2121Z" fill="white"/>
<path d="M28.7714 75.5871C28.7714 75.1439 28.8191 74.75 28.9622 74.4546C29.1054 74.1591 29.2962 73.9129 29.5348 73.7159C29.7734 73.5189 30.0596 73.3712 30.4413 73.322C30.7753 73.2235 31.2048 73.1743 31.6342 73.1743C31.9205 73.1743 32.2067 73.1743 32.493 73.2235C32.7793 73.2727 33.0179 73.322 33.2564 73.3712C33.495 73.4205 33.7813 73.5189 34.0199 73.5682L33.495 74.947C33.3996 74.8485 33.2565 74.7992 33.1133 74.7008C32.9702 74.6023 32.827 74.553 32.6362 74.5038C32.493 74.4546 32.3022 74.4053 32.159 74.3561C32.0159 74.3068 31.8728 74.3068 31.7296 74.3068C31.6342 74.3068 31.5388 74.3068 31.4433 74.3561C31.3479 74.4053 31.2525 74.4545 31.157 74.553C31.0616 74.6515 31.0139 74.7992 30.9662 74.947C30.9185 75.0947 30.8708 75.3409 30.8708 75.5871C30.8708 75.8333 30.9185 76.0303 30.9662 76.2273C31.0139 76.375 31.0616 76.5227 31.157 76.6212C31.2525 76.7197 31.3479 76.7689 31.4433 76.8182C31.5388 76.8674 31.6342 76.8674 31.7296 76.8674C31.8728 76.8674 32.0159 76.8674 32.159 76.8182C32.3022 76.7689 32.4453 76.7197 32.6362 76.6705C32.7793 76.6212 32.9225 76.5227 33.1133 76.4735C33.2565 76.375 33.3996 76.3258 33.495 76.2273L34.0676 77.6553C33.829 77.7538 33.5904 77.803 33.3042 77.8523C33.0656 77.9015 32.827 77.9508 32.5407 78C32.2545 78.0492 31.9682 78.0492 31.6819 78.0492C31.2525 78.0492 30.8708 78 30.4891 77.9015C30.1551 77.803 29.8211 77.7045 29.5825 77.5076C29.3439 77.3106 29.1531 77.0644 29.0099 76.7689C28.8191 76.375 28.7714 76.0303 28.7714 75.5871Z" fill="white"/>
<path d="M38.839 73.2727C38.839 73.4205 38.8867 73.6174 38.9345 73.8636C38.9822 74.1099 39.0776 74.4053 39.173 74.7008C39.2685 74.9962 39.4116 75.3409 39.507 75.6364C39.6502 75.9811 39.7933 76.2765 39.8887 76.572C40.0319 76.8674 40.175 77.1136 40.2704 77.3599C40.4136 77.6061 40.509 77.7538 40.6044 77.8523H37.9325C37.9325 77.7538 37.9325 77.6553 37.9325 77.5568C37.9325 77.4583 37.8848 77.3106 37.8848 77.2121H36.8351C36.7873 77.3599 36.7873 77.5076 36.7873 77.6061C36.7873 77.7046 36.7873 77.803 36.8351 77.9015H34.5448C34.5925 77.803 34.6879 77.7046 34.7834 77.5568C34.8788 77.4091 34.9742 77.2121 35.0696 77.0152C35.1651 76.8182 35.2605 76.6212 35.3559 76.375C35.4514 76.1288 35.5468 75.9318 35.6422 75.6856C35.7376 75.4394 35.8331 75.1932 35.9285 74.947C36.0239 74.7008 36.0716 74.5038 36.1671 74.2576C36.2148 74.0606 36.2625 73.8636 36.3102 73.6667C36.3579 73.5189 36.3579 73.3712 36.3579 73.2727H38.839ZM37.6462 76.1288C37.6462 76.1288 37.6462 76.0796 37.5985 75.9811C37.5985 75.9318 37.5508 75.8333 37.5508 75.7841C37.5508 75.7349 37.503 75.6364 37.503 75.5871C37.503 75.5379 37.4553 75.4886 37.4553 75.4886C37.4553 75.5379 37.4076 75.5379 37.4076 75.6364C37.4076 75.7349 37.3599 75.7349 37.3599 75.8333C37.3599 75.8826 37.3122 75.9811 37.3122 76.0303C37.3122 76.0795 37.2645 76.1288 37.2645 76.178H37.6462V76.1288Z" fill="white"/>
<path d="M44.4214 73.2727C44.7554 73.2727 45.0894 73.322 45.3757 73.4205C45.662 73.5189 45.8529 73.6174 46.0437 73.7652C46.2346 73.9129 46.33 74.0606 46.4254 74.2576C46.5208 74.4546 46.5686 74.6515 46.5686 74.8485C46.5686 75.0947 46.5208 75.2917 46.4254 75.4886C46.33 75.6856 46.1869 75.8826 45.996 75.9811C45.8051 76.1288 45.6143 76.2273 45.328 76.3258C45.0417 76.4242 44.8032 76.4735 44.4692 76.4735H43.5626C43.5626 76.7689 43.6103 77.0152 43.658 77.2614C43.7057 77.5076 43.7535 77.7046 43.8489 77.9015H41.2723C41.3201 77.803 41.3678 77.6553 41.4155 77.5076C41.4632 77.3599 41.4632 77.1629 41.5109 76.9659C41.5109 76.7689 41.5586 76.572 41.5586 76.3258C41.5586 76.1288 41.5586 75.8826 41.5586 75.6856C41.5586 75.4394 41.5586 75.1932 41.5586 74.9962C41.5586 74.75 41.5109 74.553 41.5109 74.3068C41.5109 74.1099 41.4632 73.9129 41.4155 73.7159C41.3678 73.5189 41.3201 73.4205 41.2723 73.322H44.4214V73.2727ZM44.1829 75.3409C44.2783 75.3409 44.3737 75.2917 44.4692 75.1932C44.5646 75.0947 44.5646 74.9962 44.5646 74.8485C44.5646 74.7008 44.5169 74.6023 44.4692 74.5038C44.3737 74.4053 44.326 74.3561 44.1829 74.3561H43.5626C43.5626 74.4053 43.5626 74.5038 43.5626 74.553C43.5626 74.6023 43.5626 74.7008 43.5626 74.75C43.5626 74.7993 43.5626 74.8977 43.5626 74.9962C43.5626 75.0947 43.5626 75.1932 43.5626 75.2917H44.1829V75.3409Z" fill="white"/>
<path d="M49.7177 73.2727C49.67 73.3712 49.6222 73.5189 49.6222 73.6667C49.5745 73.8636 49.5745 74.0114 49.5268 74.2576C49.4791 74.5038 49.4791 74.7008 49.4791 74.947C49.4791 75.1932 49.4791 75.4394 49.4791 75.6364C49.4791 75.8333 49.4791 76.0795 49.4791 76.2765C49.4791 76.4735 49.5268 76.7197 49.5268 76.9167C49.5268 77.1136 49.5745 77.3106 49.6222 77.4583C49.67 77.6061 49.7177 77.7538 49.7654 77.8523H47.1888C47.2366 77.7538 47.2843 77.6061 47.332 77.4583C47.3797 77.3106 47.3797 77.1136 47.4274 76.9167C47.4274 76.7197 47.4751 76.5227 47.4751 76.2765C47.4751 76.0795 47.4751 75.8333 47.4751 75.6364C47.4751 75.3902 47.4751 75.1439 47.4751 74.947C47.4751 74.7008 47.4274 74.5038 47.4274 74.2576C47.4274 74.0606 47.3797 73.8636 47.332 73.6667C47.2843 73.4697 47.2366 73.3712 47.1888 73.2727H49.7177Z" fill="white"/>
<path d="M55.3479 73.2727L55.8728 74.947C55.5388 74.7992 55.2048 74.6515 54.9185 74.6023C54.6322 74.5038 54.3459 74.4546 54.1074 74.4053C54.1074 74.6023 54.1074 74.7992 54.0597 74.9962C54.0597 75.1932 54.0597 75.4394 54.0597 75.6364C54.0597 75.8333 54.0597 76.0795 54.0597 76.2765C54.0597 76.4735 54.1074 76.7197 54.1074 76.9167C54.1074 77.1136 54.1551 77.3106 54.2028 77.4583C54.2505 77.6061 54.2982 77.7538 54.3459 77.8523H51.7694C51.8171 77.7538 51.8648 77.6061 51.9125 77.4583C51.9602 77.3106 51.9602 77.1136 52.008 76.9167C52.008 76.7197 52.0557 76.5227 52.0557 76.2765C52.0557 76.0795 52.0557 75.8333 52.0557 75.6364C52.0557 75.4886 52.0557 75.3902 52.0557 75.2917C52.0557 75.1932 52.0557 75.0947 52.0557 74.9962C52.0557 74.8977 52.0557 74.7992 52.0557 74.75C52.0557 74.6515 52.0557 74.553 52.0557 74.4545C51.7694 74.5038 51.4831 74.553 51.1968 74.6515C50.9105 74.75 50.5766 74.8485 50.2426 75.0455L50.7674 73.322H55.3479V73.2727Z" fill="white"/>
<path d="M59.8808 73.2727C59.8808 73.4205 59.9285 73.6174 59.9762 73.8636C60.0239 74.1099 60.1194 74.4053 60.2148 74.7008C60.3102 74.9962 60.4533 75.3409 60.5488 75.6364C60.6919 75.9811 60.8351 76.2765 60.9305 76.572C61.0736 76.8674 61.2168 77.1136 61.3122 77.3599C61.4553 77.6061 61.5508 77.7538 61.6462 77.8523H58.9742C58.9742 77.7538 58.9742 77.6553 58.9742 77.5568C58.9742 77.4583 58.9265 77.3106 58.9265 77.2121H57.8768C57.8291 77.3599 57.8291 77.5076 57.8291 77.6061C57.8291 77.7046 57.8291 77.803 57.8768 77.9015H55.5865C55.6343 77.803 55.7297 77.7046 55.8251 77.5568C55.9205 77.4091 56.016 77.2121 56.1114 77.0152C56.2068 76.8182 56.3023 76.6212 56.3977 76.375C56.4931 76.1288 56.5885 75.9318 56.684 75.6856C56.7794 75.4394 56.8748 75.1932 56.9702 74.947C57.0657 74.7008 57.1134 74.5038 57.2088 74.2576C57.2565 74.0606 57.3042 73.8636 57.352 73.6667C57.3997 73.5189 57.3997 73.3712 57.3997 73.2727H59.8808ZM58.6879 76.1288C58.6879 76.1288 58.6879 76.0796 58.6402 75.9811C58.6402 75.9318 58.5925 75.8333 58.5925 75.7841C58.5925 75.7349 58.5448 75.6364 58.5448 75.5871C58.5448 75.5379 58.4971 75.4886 58.4971 75.4886C58.4971 75.5379 58.4494 75.5379 58.4494 75.6364C58.4494 75.6856 58.4017 75.7349 58.4017 75.8333C58.4017 75.8826 58.3539 75.9811 58.3539 76.0303C58.3539 76.0795 58.3062 76.1288 58.3062 76.178H58.6879V76.1288Z" fill="white"/>
<path d="M64.8906 73.2727C64.8429 73.3712 64.7952 73.5189 64.7952 73.6667C64.7475 73.8636 64.7475 74.0606 64.6998 74.2576C64.6998 74.4546 64.6521 74.7008 64.6521 74.947C64.6521 75.1932 64.6521 75.4394 64.6521 75.6856C64.6521 75.7841 64.6521 75.8826 64.6521 75.9811C64.6521 76.0796 64.6521 76.1288 64.6521 76.2273C64.6521 76.3258 64.6521 76.375 64.6521 76.4735C64.6521 76.572 64.6521 76.6212 64.6521 76.7197C64.8906 76.7197 65.1292 76.6705 65.4155 76.6705C65.6541 76.6212 65.8926 76.6212 66.1312 76.572C66.3698 76.5227 66.6083 76.4735 66.7992 76.4242C67.0378 76.375 67.2286 76.2765 67.4195 76.2273L66.9423 77.9015H62.3618C62.4095 77.803 62.4572 77.6553 62.505 77.5076C62.5527 77.3599 62.5527 77.1629 62.6004 76.9659C62.6481 76.7689 62.6481 76.572 62.6481 76.3258C62.6481 76.1288 62.6481 75.8826 62.6481 75.6856C62.6481 75.4394 62.6481 75.1932 62.6481 74.9962C62.6481 74.75 62.6004 74.553 62.6004 74.3068C62.6004 74.0606 62.5527 73.9129 62.505 73.7159C62.4572 73.5189 62.4095 73.4205 62.3618 73.322H64.8906V73.2727Z" fill="white"/>
<path d="M69.5189 77.2121C69.5189 77.2614 69.5189 77.3599 69.4712 77.4583C69.4235 77.5568 69.4235 77.6061 69.3281 77.7046C69.2803 77.7538 69.1849 77.8523 69.0895 77.9015C68.9941 77.9508 68.8986 77.9508 68.7555 77.9508C68.6123 77.9508 68.5169 77.9508 68.4215 77.9015C68.3261 77.8523 68.2783 77.803 68.1829 77.7046C68.0875 77.6061 68.0875 77.5568 68.0398 77.4583C67.9921 77.3599 67.9921 77.3106 67.9921 77.2121C67.9921 77.1629 67.9921 77.0644 68.0398 76.9659C68.0875 76.8674 68.0875 76.8182 68.1829 76.7197C68.2783 76.6212 68.3261 76.572 68.4215 76.5227C68.5169 76.4735 68.6123 76.4735 68.7555 76.4735C68.8986 76.4735 68.9941 76.4735 69.0895 76.5227C69.1849 76.572 69.2326 76.6212 69.3281 76.7197C69.3758 76.769 69.4235 76.8674 69.4712 76.9659C69.5189 77.0644 69.5189 77.1629 69.5189 77.2121Z" fill="white"/>
<path d="M71.0934 43.7765C70.4732 43.3333 69.7097 43.0871 68.8986 43.0871C67.4672 43.0871 64.7475 43.875 63.0298 45.0568C55.6819 44.9583 48.5726 44.0227 41.7018 42.2993C41.0815 42.1515 40.5089 42.0038 39.8887 41.8561C39.8887 39.2955 37.837 37.2273 35.4036 37.2273C34.163 37.2273 33.0656 37.7197 32.2545 38.5568C31.4433 39.394 30.9185 40.5265 30.8708 41.8068C30.6799 41.2159 30.5845 40.5758 30.5845 39.8864C30.5845 38.2614 31.2048 36.7841 32.2545 35.7008V25.9508H32.493H43.2286H46.664H50.0994C50.0994 23.9811 48.5726 22.4053 46.664 22.4053C45.8529 22.4053 45.0895 22.7008 44.5169 23.1932C42.4652 21.2235 39.841 20.0417 36.9304 20.0417C35.6899 20.0417 34.497 20.2386 33.3996 20.6818C35.0696 17.3826 38.4095 15.1174 42.3221 15.1174H72C65.8449 5.5644 55.2048 -0.541664 43.1809 0.0492451C30.5368 0.640154 19.7535 8.8144 14.839 20.1402C14.3141 20.0417 13.7416 19.9924 13.169 19.9924C10.2585 19.9924 7.6342 21.1742 5.58251 23.1439C5.00994 22.6515 4.24652 22.3561 3.43539 22.3561C1.52684 22.3561 0 23.9318 0 25.9015H3.43539H6.87078H12.9304C12.3579 28.4129 12.0239 30.9735 12.0239 33.6326C12.0239 37.9167 12.7396 41.9546 14.171 45.7462C14.171 45.7462 14.171 45.7955 14.2187 45.7955C14.3141 46.0909 14.4095 46.3371 14.5527 46.6326C14.1233 46.5833 13.6938 46.5341 13.2167 46.5341C10.3062 46.5341 7.68191 47.7159 5.63022 49.6856C5.05765 49.1932 4.29423 48.8977 3.4831 48.8977C1.57455 48.8977 0.0477137 50.4735 0.0477137 52.4432H3.4831H6.91849H17.6541H18.1312C24.334 58.0076 34.3539 61.3561 43.3241 61.3561C51.4831 61.3561 58.831 58.5985 64.6998 53.9697C64.6998 53.9697 64.8907 53.822 64.9384 53.7727L63.6978 52.4924L60.9781 54.4129L58.3062 52.4924L55.6342 54.4129L53.0577 52.5909L50.4811 54.4129L47.8569 52.5417L44.6123 54.4129L41.5587 52.394H38.505C38.505 52.3447 38.505 52.2955 38.505 52.2462C38.6004 50.9659 39.6501 49.9318 40.9384 49.9318C41.9404 49.9318 44.0875 51.2614 45.1849 52L47.8091 50.1288L50.4334 51.9508L53.0577 50.1288L55.6342 51.9508L58.2107 50.1288L60.8827 52L63.5547 50.1288L66.2266 52.0493C66.2266 52.0493 68.326 50.6705 69.8529 49.0455C70.5209 48.3068 71.0934 47.519 71.5229 46.8788C72.2863 45.7955 72.0954 44.4167 71.0934 43.7765ZM37.4076 43.7273C36.501 43.9243 35.4036 43.678 34.6402 42.8409C34.3062 42.4962 34.0676 42.1023 33.9245 41.6591C33.7336 41.1174 33.6859 40.5265 33.829 39.9849C34.7356 39.7386 35.833 40.0341 36.5964 40.822C37.3598 41.6591 37.6461 42.7424 37.4076 43.7273Z" fill="white"/>
</g>
<defs>
<clipPath id="clip0_49_9">
<rect width="72" height="78" fill="white"/>
</clipPath>
</defs>
</svg>
